<svg width="20" height="20" viewBox="0 0 20 20" fill="none" xmlns="http://www.w3.org/2000/svg">
  <path fill-rule="evenodd" clip-rule="evenodd" d="M7.67914 4.41299V3.86091C7.67914 3.66656 7.75907 3.49285 7.89408 3.36214C8.02908 3.23315 8.2085 3.15404 8.40923 3.15404H11.5925C11.7932 3.15404 11.9726 3.23143 12.1076 3.36214C12.2409 3.49285 12.3226 3.66656 12.3226 3.86091V4.41299H13.5163V3.86091C13.5163 3.34838 13.2978 2.88058 12.9514 2.5452C12.6032 2.20982 12.1201 2 11.5907 2H8.40923C7.87987 2 7.39669 2.20982 7.0503 2.54692C6.70391 2.8823 6.48541 3.3501 6.48541 3.86263V4.41471H7.67914V4.41299ZM11.7325 12.7164C11.395 12.9702 10.9761 13.1085 10.5435 13.1085H10.5331L9.4375 13.1036C9.00826 13.102 8.59288 12.9637 8.25884 12.7115L3.76923 9.33333V16.3728C3.76923 17.2677 4.54807 18 5.5 18H14.5C15.4519 18 16.2308 17.2677 16.2308 16.3728V9.33333L11.7325 12.7164ZM3.72315 5.02354H16.2768C16.7671 5.02354 17.165 5.4088 17.1667 5.88348V6.5078C17.1667 6.76922 17.0442 7.01516 16.8328 7.17855L11.1146 11.6072C10.9583 11.7293 10.7629 11.7964 10.5604 11.7964H10.5551L9.43064 11.7913C9.22991 11.7895 9.03628 11.7225 8.87996 11.6021L3.16892 7.17855C2.95753 7.01688 2.83496 6.76922 2.83496 6.5078V5.88348C2.83496 5.4088 3.23287 5.02354 3.72315 5.02354ZM2.38462 16.6667H1.98962C1.44455 16.6667 1 16.1176 1 15.4484V11.6837L2.36763 10L2.38462 16.6667ZM18.0104 16.6667H17.6154L17.6323 10L19 11.6837V15.4484C19 16.1194 18.554 16.6667 18.0104 16.6667Z" fill="#CDBE91"/>
  </svg>
